<svg xmlns="http://www.w3.org/2000/svg" viewBox="0 0 100 100"><style>.jewel{display:none}.gold{display:inline}@media (prefers-color-scheme: light){.jewel{display:inline}.gold{display:none}}</style><g class="jewel"><circle cx="80.5" cy="62.6" r="5.4" fill="#1f4f6e"/><circle cx="62.6" cy="80.5" r="5.4" fill="#7a2630"/><circle cx="37.4" cy="80.5" r="5.4" fill="#1f5040"/><circle cx="19.5" cy="62.6" r="5.4" fill="#5a3a78"/><circle cx="19.5" cy="37.4" r="5.4" fill="#2b5e86"/><circle cx="37.4" cy="19.5" r="5.4" fill="#86471f"/><circle cx="62.6" cy="19.5" r="5.4" fill="#2f4f1f"/><circle cx="80.5" cy="37.4" r="5.4" fill="#6e2450"/><circle cx="50" cy="50" r="12" fill="#7a2630"/><circle cx="50" cy="50" r="5.5" fill="#c8a866"/><g fill="none" stroke="#c8a866" stroke-width="3.2" stroke-linecap="round"><circle cx="50" cy="50" r="46"/><circle cx="50" cy="50" r="41" stroke-width="1.6"/><line x1="65.0" y1="50.0" x2="84.0" y2="50.0" stroke-width="1.6"/><line x1="60.6" y1="60.6" x2="74.0" y2="74.0" stroke-width="1.6"/><line x1="50.0" y1="65.0" x2="50.0" y2="84.0" stroke-width="1.6"/><line x1="39.4" y1="60.6" x2="26.0" y2="74.0" stroke-width="1.6"/><line x1="35.0" y1="50.0" x2="16.0" y2="50.0" stroke-width="1.6"/><line x1="39.4" y1="39.4" x2="26.0" y2="26.0" stroke-width="1.6"/><line x1="50.0" y1="35.0" x2="50.0" y2="16.0" stroke-width="1.6"/><line x1="60.6" y1="39.4" x2="74.0" y2="26.0" stroke-width="1.6"/><circle cx="80.5" cy="62.6" r="5.4" stroke-width="2"/><circle cx="62.6" cy="80.5" r="5.4" stroke-width="2"/><circle cx="37.4" cy="80.5" r="5.4" stroke-width="2"/><circle cx="19.5" cy="62.6" r="5.4" stroke-width="2"/><circle cx="19.5" cy="37.4" r="5.4" stroke-width="2"/><circle cx="37.4" cy="19.5" r="5.4" stroke-width="2"/><circle cx="62.6" cy="19.5" r="5.4" stroke-width="2"/><circle cx="80.5" cy="37.4" r="5.4" stroke-width="2"/><circle cx="50" cy="50" r="12"/><circle cx="50" cy="50" r="5.5" stroke-width="1.8"/></g></g><g class="gold"><g fill="none" stroke="#c8a866" stroke-width="3.2" stroke-linecap="round"><circle cx="50" cy="50" r="46"/><circle cx="50" cy="50" r="41" stroke-width="1.6"/><line x1="65.0" y1="50.0" x2="84.0" y2="50.0" stroke-width="1.6"/><line x1="60.6" y1="60.6" x2="74.0" y2="74.0" stroke-width="1.6"/><line x1="50.0" y1="65.0" x2="50.0" y2="84.0" stroke-width="1.6"/><line x1="39.4" y1="60.6" x2="26.0" y2="74.0" stroke-width="1.6"/><line x1="35.0" y1="50.0" x2="16.0" y2="50.0" stroke-width="1.6"/><line x1="39.4" y1="39.4" x2="26.0" y2="26.0" stroke-width="1.6"/><line x1="50.0" y1="35.0" x2="50.0" y2="16.0" stroke-width="1.6"/><line x1="60.6" y1="39.4" x2="74.0" y2="26.0" stroke-width="1.6"/><circle cx="80.5" cy="62.6" r="5.4" stroke-width="2"/><circle cx="62.6" cy="80.5" r="5.4" stroke-width="2"/><circle cx="37.4" cy="80.5" r="5.4" stroke-width="2"/><circle cx="19.5" cy="62.6" r="5.4" stroke-width="2"/><circle cx="19.5" cy="37.4" r="5.4" stroke-width="2"/><circle cx="37.4" cy="19.5" r="5.4" stroke-width="2"/><circle cx="62.6" cy="19.5" r="5.4" stroke-width="2"/><circle cx="80.5" cy="37.4" r="5.4" stroke-width="2"/><circle cx="50" cy="50" r="12"/><circle cx="50" cy="50" r="5.5" stroke-width="1.8"/></g></g></svg>