<svg xmlns="http://www.w3.org/2000/svg" viewBox="0 0 100 100">
<circle cx="50" cy="50" r="49" fill="#c8a866"/>
<circle cx="50" cy="50" r="46.5" fill="#190d10"/>
<path d="M44.6,33.9 Q44.7,23.1 50.0,12.0 Q55.3,23.1 55.4,33.9 A17.0,17.0 0 0 1 44.6,33.9 Z" fill="#3268a0" stroke="#d8b878" stroke-width="1.3"/>
<path d="M57.6,34.8 Q65.3,27.3 76.9,23.1 Q72.7,34.7 65.2,42.4 A17.0,17.0 0 0 1 57.6,34.8 Z" fill="#2a8560" stroke="#d8b878" stroke-width="1.3"/>
<path d="M66.1,44.6 Q76.9,44.7 88.0,50.0 Q76.9,55.3 66.1,55.4 A17.0,17.0 0 0 1 66.1,44.6 Z" fill="#a83850" stroke="#d8b878" stroke-width="1.3"/>
<path d="M65.2,57.6 Q72.7,65.3 76.9,76.9 Q65.3,72.7 57.6,65.2 A17.0,17.0 0 0 1 65.2,57.6 Z" fill="#c8a04a" stroke="#d8b878" stroke-width="1.3"/>
<path d="M55.4,66.1 Q55.3,76.9 50.0,88.0 Q44.7,76.9 44.6,66.1 A17.0,17.0 0 0 1 55.4,66.1 Z" fill="#3a72aa" stroke="#d8b878" stroke-width="1.3"/>
<path d="M42.4,65.2 Q34.7,72.7 23.1,76.9 Q27.3,65.3 34.8,57.6 A17.0,17.0 0 0 1 42.4,65.2 Z" fill="#2a8560" stroke="#d8b878" stroke-width="1.3"/>
<path d="M33.9,55.4 Q23.1,55.3 12.0,50.0 Q23.1,44.7 33.9,44.6 A17.0,17.0 0 0 1 33.9,55.4 Z" fill="#6a4894" stroke="#d8b878" stroke-width="1.3"/>
<path d="M34.8,42.4 Q27.3,34.7 23.1,23.1 Q34.7,27.3 42.4,34.8 A17.0,17.0 0 0 1 34.8,42.4 Z" fill="#a83850" stroke="#d8b878" stroke-width="1.3"/>
<circle cx="50" cy="50" r="16" fill="#190d10" stroke="#d8b878" stroke-width="1.6"/>
<circle cx="50" cy="50" r="7.5" fill="#c8a04a" stroke="#d8b878" stroke-width="1.2"/>
</svg>