<svg xmlns="http://www.w3.org/2000/svg" viewBox="0 0 200 240">
<path d="M95.0,55.4 L100.0,6.0 L105.0,55.4 Z" fill="#c8a866" stroke="#9a7836" stroke-width="0.6" stroke-linejoin="round"/>
<path d="M105.4,55.4 L115.5,30.0 L111.6,57.1 Z" fill="#9a7836" stroke="#9a7836" stroke-width="0.6" stroke-linejoin="round"/>
<path d="M112.0,57.3 L141.0,17.0 L120.6,62.2 Z" fill="#c8a866" stroke="#9a7836" stroke-width="0.6" stroke-linejoin="round"/>
<path d="M121.0,62.5 L142.4,45.6 L125.5,67.0 Z" fill="#9a7836" stroke="#9a7836" stroke-width="0.6" stroke-linejoin="round"/>
<path d="M125.8,67.4 L171.0,47.0 L130.7,76.0 Z" fill="#c8a866" stroke="#9a7836" stroke-width="0.6" stroke-linejoin="round"/>
<path d="M130.9,76.4 L158.0,72.5 L132.6,82.6 Z" fill="#9a7836" stroke="#9a7836" stroke-width="0.6" stroke-linejoin="round"/>
<path d="M132.6,83.0 L182.0,88.0 L132.6,93.0 Z" fill="#c8a866" stroke="#9a7836" stroke-width="0.6" stroke-linejoin="round"/>
<path d="M132.6,93.4 L158.0,103.5 L130.9,99.6 Z" fill="#9a7836" stroke="#9a7836" stroke-width="0.6" stroke-linejoin="round"/>
<path d="M130.7,100.0 L171.0,129.0 L125.8,108.6 Z" fill="#c8a866" stroke="#9a7836" stroke-width="0.6" stroke-linejoin="round"/>
<path d="M125.5,109.0 L142.4,130.4 L121.0,113.5 Z" fill="#9a7836" stroke="#9a7836" stroke-width="0.6" stroke-linejoin="round"/>
<path d="M120.6,113.8 L141.0,159.0 L112.0,118.7 Z" fill="#c8a866" stroke="#9a7836" stroke-width="0.6" stroke-linejoin="round"/>
<path d="M111.6,118.9 L115.5,146.0 L105.4,120.6 Z" fill="#9a7836" stroke="#9a7836" stroke-width="0.6" stroke-linejoin="round"/>
<path d="M105.0,120.6 L100.0,170.0 L95.0,120.6 Z" fill="#c8a866" stroke="#9a7836" stroke-width="0.6" stroke-linejoin="round"/>
<path d="M94.6,120.6 L84.5,146.0 L88.4,118.9 Z" fill="#9a7836" stroke="#9a7836" stroke-width="0.6" stroke-linejoin="round"/>
<path d="M88.0,118.7 L59.0,159.0 L79.4,113.8 Z" fill="#c8a866" stroke="#9a7836" stroke-width="0.6" stroke-linejoin="round"/>
<path d="M79.0,113.5 L57.6,130.4 L74.5,109.0 Z" fill="#9a7836" stroke="#9a7836" stroke-width="0.6" stroke-linejoin="round"/>
<path d="M74.2,108.6 L29.0,129.0 L69.3,100.0 Z" fill="#c8a866" stroke="#9a7836" stroke-width="0.6" stroke-linejoin="round"/>
<path d="M69.1,99.6 L42.0,103.5 L67.4,93.4 Z" fill="#9a7836" stroke="#9a7836" stroke-width="0.6" stroke-linejoin="round"/>
<path d="M67.4,93.0 L18.0,88.0 L67.4,83.0 Z" fill="#c8a866" stroke="#9a7836" stroke-width="0.6" stroke-linejoin="round"/>
<path d="M67.4,82.6 L42.0,72.5 L69.1,76.4 Z" fill="#9a7836" stroke="#9a7836" stroke-width="0.6" stroke-linejoin="round"/>
<path d="M69.3,76.0 L29.0,47.0 L74.2,67.4 Z" fill="#c8a866" stroke="#9a7836" stroke-width="0.6" stroke-linejoin="round"/>
<path d="M74.5,67.0 L57.6,45.6 L79.0,62.5 Z" fill="#9a7836" stroke="#9a7836" stroke-width="0.6" stroke-linejoin="round"/>
<path d="M79.4,62.2 L59.0,17.0 L88.0,57.3 Z" fill="#c8a866" stroke="#9a7836" stroke-width="0.6" stroke-linejoin="round"/>
<path d="M88.4,57.1 L84.5,30.0 L94.6,55.4 Z" fill="#9a7836" stroke="#9a7836" stroke-width="0.6" stroke-linejoin="round"/>
<circle cx="100.0" cy="88.0" r="34.0" fill="#1d2c28" stroke="#c8a866" stroke-width="2"/>
<circle cx="100.0" cy="59.5" r="1.15" fill="#c8a866"/>
<circle cx="107.4" cy="60.5" r="1.15" fill="#c8a866"/>
<circle cx="114.2" cy="63.3" r="1.15" fill="#c8a866"/>
<circle cx="120.2" cy="67.8" r="1.15" fill="#c8a866"/>
<circle cx="124.7" cy="73.8" r="1.15" fill="#c8a866"/>
<circle cx="127.5" cy="80.6" r="1.15" fill="#c8a866"/>
<circle cx="128.5" cy="88.0" r="1.15" fill="#c8a866"/>
<circle cx="127.5" cy="95.4" r="1.15" fill="#c8a866"/>
<circle cx="124.7" cy="102.2" r="1.15" fill="#c8a866"/>
<circle cx="120.2" cy="108.2" r="1.15" fill="#c8a866"/>
<circle cx="114.2" cy="112.7" r="1.15" fill="#c8a866"/>
<circle cx="107.4" cy="115.5" r="1.15" fill="#c8a866"/>
<circle cx="100.0" cy="116.5" r="1.15" fill="#c8a866"/>
<circle cx="92.6" cy="115.5" r="1.15" fill="#c8a866"/>
<circle cx="85.8" cy="112.7" r="1.15" fill="#c8a866"/>
<circle cx="79.8" cy="108.2" r="1.15" fill="#c8a866"/>
<circle cx="75.3" cy="102.2" r="1.15" fill="#c8a866"/>
<circle cx="72.5" cy="95.4" r="1.15" fill="#c8a866"/>
<circle cx="71.5" cy="88.0" r="1.15" fill="#c8a866"/>
<circle cx="72.5" cy="80.6" r="1.15" fill="#c8a866"/>
<circle cx="75.3" cy="73.8" r="1.15" fill="#c8a866"/>
<circle cx="79.8" cy="67.8" r="1.15" fill="#c8a866"/>
<circle cx="85.7" cy="63.3" r="1.15" fill="#c8a866"/>
<circle cx="92.6" cy="60.5" r="1.15" fill="#c8a866"/>
<circle cx="100.0" cy="48.0" r="2.6" fill="#1f3a5c" fill-opacity="0.85" stroke="#c8a866" stroke-width="0.8"/>
<circle cx="134.6" cy="68.0" r="2.6" fill="#6e2433" fill-opacity="0.85" stroke="#c8a866" stroke-width="0.8"/>
<circle cx="134.6" cy="108.0" r="2.6" fill="#1f4f3e" fill-opacity="0.85" stroke="#c8a866" stroke-width="0.8"/>
<circle cx="100.0" cy="128.0" r="2.6" fill="#7a5a22" fill-opacity="0.85" stroke="#c8a866" stroke-width="0.8"/>
<circle cx="65.4" cy="108.0" r="2.6" fill="#3e2a52" fill-opacity="0.85" stroke="#c8a866" stroke-width="0.8"/>
<circle cx="65.4" cy="68.0" r="2.6" fill="#244a6b" fill-opacity="0.85" stroke="#c8a866" stroke-width="0.8"/>
<circle cx="100.0" cy="88.0" r="22" fill="#f6efde" stroke="#c8a866" stroke-width="1.6"/>
<circle cx="100.0" cy="88.0" r="22" fill="none" stroke="#9a7836" stroke-width="0.5" stroke-dasharray="1.4 2.2" opacity="0.7"/>
<line x1="100.0" y1="74.5" x2="100.0" y2="101.5" stroke="#9a7836" stroke-width="2.1" stroke-linecap="round"/>
<line x1="90.5" y1="85.5" x2="109.5" y2="85.5" stroke="#9a7836" stroke-width="2.1" stroke-linecap="round"/>
<circle cx="100.0" cy="151.0" r="9.5" fill="#1d2c28" stroke="#c8a866" stroke-width="1.8"/>
<circle cx="100.0" cy="151.0" r="3.4" fill="#6e2433" fill-opacity="0.9" stroke="#c8a866" stroke-width="0.8"/>
<path d="M93.0,142.0 Q100.0,136.0 107.0,142.0" fill="none" stroke="#c8a866" stroke-width="1.6"/>
<rect x="97.6" y="159.0" width="4.8" height="26" rx="1.4" fill="#c8a866" stroke="#9a7836" stroke-width="0.6"/>
<path d="M70.0,201.0 Q70.0,187.0 88.0,187.0 L112.0,187.0 Q130.0,187.0 130.0,201.0 Q100.0,209.0 70.0,201.0 Z" fill="#1d2c28" stroke="#c8a866" stroke-width="1.8"/>
<path d="M78.0,198.0 Q100.0,192.0 122.0,198.0" fill="none" stroke="#c8a866" stroke-width="1"/>
<circle cx="100.0" cy="198.0" r="2.6" fill="#1f3a5c" fill-opacity="0.85" stroke="#c8a866" stroke-width="0.7"/>
</svg>