<svg xmlns="http://www.w3.org/2000/svg" viewBox="0 0 520 780" width="520" height="780" fill="none"><defs><clipPath id="arch"><path d="M20,760 L20,210 A240.0,240.0 0 0 1 500,210 L500,760 Z"/></clipPath><radialGradient id="glow" cx="50%" cy="42%" r="62%"><stop offset="0%" stop-color="#f3e9cf" stop-opacity="0.30"/><stop offset="55%" stop-color="#dcc398" stop-opacity="0.10"/><stop offset="100%" stop-color="#0c1c1a" stop-opacity="0"/></radialGradient></defs><path d="M20,760 L20,210 A240.0,240.0 0 0 1 500,210 L500,760 Z" fill="url(#glow)"/><g clip-path="url(#arch)"><rect x="20.0" y="270.0" width="80.0" height="66.0" fill="#7a4a86" fill-opacity="0.70" stroke="#9a7836" stroke-width="2.4"/><rect x="100.0" y="270.0" width="80.0" height="66.0" fill="#a9863f" fill-opacity="0.62" stroke="#9a7836" stroke-width="2.4"/><rect x="180.0" y="270.0" width="80.0" height="66.0" fill="#2a5ea8" fill-opacity="0.67" stroke="#9a7836" stroke-width="2.4"/><rect x="260.0" y="270.0" width="80.0" height="66.0" fill="#2a5ea8" fill-opacity="0.53" stroke="#9a7836" stroke-width="2.4"/><rect x="340.0" y="270.0" width="80.0" height="66.0" fill="#1f7a72" fill-opacity="0.69" stroke="#9a7836" stroke-width="2.4"/><rect x="420.0" y="270.0" width="80.0" height="66.0" fill="#c8a866" fill-opacity="0.43" stroke="#9a7836" stroke-width="2.4"/><rect x="20.0" y="336.0" width="80.0" height="58.0" fill="#a9863f" fill-opacity="0.55" stroke="#9a7836" stroke-width="2.4"/><rect x="100.0" y="336.0" width="80.0" height="58.0" fill="#c8a866" fill-opacity="0.45" stroke="#9a7836" stroke-width="2.4"/><rect x="180.0" y="336.0" width="80.0" height="58.0" fill="#a9863f" fill-opacity="0.44" stroke="#9a7836" stroke-width="2.4"/><rect x="260.0" y="336.0" width="80.0" height="58.0" fill="#2a5ea8" fill-opacity="0.70" stroke="#9a7836" stroke-width="2.4"/><rect x="340.0" y="336.0" width="80.0" height="58.0" fill="#1f7a72" fill-opacity="0.59" stroke="#9a7836" stroke-width="2.4"/><rect x="420.0" y="336.0" width="80.0" height="58.0" fill="#a9863f" fill-opacity="0.43" stroke="#9a7836" stroke-width="2.4"/><rect x="20.0" y="394.0" width="80.0" height="66.0" fill="#c8a866" fill-opacity="0.43" stroke="#9a7836" stroke-width="2.4"/><rect x="100.0" y="394.0" width="80.0" height="66.0" fill="#b0577f" fill-opacity="0.51" stroke="#9a7836" stroke-width="2.4"/><rect x="180.0" y="394.0" width="80.0" height="66.0" fill="#b0577f" fill-opacity="0.58" stroke="#9a7836" stroke-width="2.4"/><rect x="260.0" y="394.0" width="80.0" height="66.0" fill="#2f6e57" fill-opacity="0.59" stroke="#9a7836" stroke-width="2.4"/><rect x="340.0" y="394.0" width="80.0" height="66.0" fill="#b0577f" fill-opacity="0.45" stroke="#9a7836" stroke-width="2.4"/><rect x="420.0" y="394.0" width="80.0" height="66.0" fill="#c8a866" fill-opacity="0.53" stroke="#9a7836" stroke-width="2.4"/><rect x="20.0" y="460.0" width="80.0" height="58.0" fill="#2a5ea8" fill-opacity="0.59" stroke="#9a7836" stroke-width="2.4"/><rect x="100.0" y="460.0" width="80.0" height="58.0" fill="#c8a866" fill-opacity="0.57" stroke="#9a7836" stroke-width="2.4"/><rect x="180.0" y="460.0" width="80.0" height="58.0" fill="#a9863f" fill-opacity="0.65" stroke="#9a7836" stroke-width="2.4"/><rect x="260.0" y="460.0" width="80.0" height="58.0" fill="#356f8f" fill-opacity="0.60" stroke="#9a7836" stroke-width="2.4"/><rect x="340.0" y="460.0" width="80.0" height="58.0" fill="#356f8f" fill-opacity="0.53" stroke="#9a7836" stroke-width="2.4"/><rect x="420.0" y="460.0" width="80.0" height="58.0" fill="#c8a866" fill-opacity="0.66" stroke="#9a7836" stroke-width="2.4"/><rect x="20.0" y="518.0" width="80.0" height="66.0" fill="#c8a866" fill-opacity="0.44" stroke="#9a7836" stroke-width="2.4"/><rect x="100.0" y="518.0" width="80.0" height="66.0" fill="#2f6e57" fill-opacity="0.58" stroke="#9a7836" stroke-width="2.4"/><rect x="180.0" y="518.0" width="80.0" height="66.0" fill="#7a4a86" fill-opacity="0.64" stroke="#9a7836" stroke-width="2.4"/><rect x="260.0" y="518.0" width="80.0" height="66.0" fill="#2f6e57" fill-opacity="0.60" stroke="#9a7836" stroke-width="2.4"/><rect x="340.0" y="518.0" width="80.0" height="66.0" fill="#2a5ea8" fill-opacity="0.46" stroke="#9a7836" stroke-width="2.4"/><rect x="420.0" y="518.0" width="80.0" height="66.0" fill="#a9863f" fill-opacity="0.47" stroke="#9a7836" stroke-width="2.4"/><rect x="20.0" y="584.0" width="80.0" height="58.0" fill="#7a4a86" fill-opacity="0.47" stroke="#9a7836" stroke-width="2.4"/><rect x="100.0" y="584.0" width="80.0" height="58.0" fill="#356f8f" fill-opacity="0.55" stroke="#9a7836" stroke-width="2.4"/><rect x="180.0" y="584.0" width="80.0" height="58.0" fill="#2a5ea8" fill-opacity="0.65" stroke="#9a7836" stroke-width="2.4"/><rect x="260.0" y="584.0" width="80.0" height="58.0" fill="#7a4a86" fill-opacity="0.52" stroke="#9a7836" stroke-width="2.4"/><rect x="340.0" y="584.0" width="80.0" height="58.0" fill="#7a4a86" fill-opacity="0.60" stroke="#9a7836" stroke-width="2.4"/><rect x="420.0" y="584.0" width="80.0" height="58.0" fill="#356f8f" fill-opacity="0.44" stroke="#9a7836" stroke-width="2.4"/><rect x="20.0" y="642.0" width="80.0" height="66.0" fill="#2a5ea8" fill-opacity="0.70" stroke="#9a7836" stroke-width="2.4"/><rect x="100.0" y="642.0" width="80.0" height="66.0" fill="#356f8f" fill-opacity="0.63" stroke="#9a7836" stroke-width="2.4"/><rect x="180.0" y="642.0" width="80.0" height="66.0" fill="#2a5ea8" fill-opacity="0.44" stroke="#9a7836" stroke-width="2.4"/><rect x="260.0" y="642.0" width="80.0" height="66.0" fill="#2f6e57" fill-opacity="0.61" stroke="#9a7836" stroke-width="2.4"/><rect x="340.0" y="642.0" width="80.0" height="66.0" fill="#356f8f" fill-opacity="0.51" stroke="#9a7836" stroke-width="2.4"/><rect x="420.0" y="642.0" width="80.0" height="66.0" fill="#a9863f" fill-opacity="0.69" stroke="#9a7836" stroke-width="2.4"/><rect x="20.0" y="708.0" width="80.0" height="58.0" fill="#7a4a86" fill-opacity="0.43" stroke="#9a7836" stroke-width="2.4"/><rect x="100.0" y="708.0" width="80.0" height="58.0" fill="#356f8f" fill-opacity="0.53" stroke="#9a7836" stroke-width="2.4"/><rect x="180.0" y="708.0" width="80.0" height="58.0" fill="#2a5ea8" fill-opacity="0.57" stroke="#9a7836" stroke-width="2.4"/><rect x="260.0" y="708.0" width="80.0" height="58.0" fill="#c8a866" fill-opacity="0.65" stroke="#9a7836" stroke-width="2.4"/><rect x="340.0" y="708.0" width="80.0" height="58.0" fill="#b0577f" fill-opacity="0.64" stroke="#9a7836" stroke-width="2.4"/><rect x="420.0" y="708.0" width="80.0" height="58.0" fill="#a9863f" fill-opacity="0.54" stroke="#9a7836" stroke-width="2.4"/></g><path d="M20,760 L20,210 A240.0,240.0 0 0 1 500,210 L500,760 Z" fill="none" stroke="#9a7836" stroke-width="5"/><line x1="260.0" y1="210" x2="260.0" y2="760" stroke="#9a7836" stroke-width="3.2"/><circle cx="260.0" cy="140" r="60" fill="#356f8f" fill-opacity="0.5" stroke="#9a7836" stroke-width="3"/><circle cx="293.0" cy="140.0" r="20.4" fill="#1f7a72" fill-opacity="0.55" stroke="#9a7836" stroke-width="2"/><circle cx="276.5" cy="168.6" r="20.4" fill="#2a5ea8" fill-opacity="0.55" stroke="#9a7836" stroke-width="2"/><circle cx="243.5" cy="168.6" r="20.4" fill="#b0577f" fill-opacity="0.55" stroke="#9a7836" stroke-width="2"/><circle cx="227.0" cy="140.0" r="20.4" fill="#c8a866" fill-opacity="0.55" stroke="#9a7836" stroke-width="2"/><circle cx="243.5" cy="111.4" r="20.4" fill="#2f6e57" fill-opacity="0.55" stroke="#9a7836" stroke-width="2"/><circle cx="276.5" cy="111.4" r="20.4" fill="#7a4a86" fill-opacity="0.55" stroke="#9a7836" stroke-width="2"/><circle cx="260.0" cy="140" r="18.0" fill="#9a7836" fill-opacity="0.5" stroke="#9a7836" stroke-width="2"/></svg>